<?xml version="1.0" encoding="UTF-8" standalone="no"?>
<!-- Created with Inkscape (http://www.inkscape.org/) -->

<svg
   width="26.25mm"
   height="18.562mm"
   viewBox="0 0 26.25 18.562"
   version="1.1"
   id="svg12205"
   inkscape:version="1.2.2 (b0a8486541, 2022-12-01)"
   sodipodi:docname="foxes_back.svg"
   xmlns:inkscape="http://www.inkscape.org/namespaces/inkscape"
   xmlns:sodipodi="http://sodipodi.sourceforge.net/DTD/sodipodi-0.dtd"
   xmlns="http://www.w3.org/2000/svg"
   xmlns:svg="http://www.w3.org/2000/svg">
  <sodipodi:namedview
     id="namedview12207"
     pagecolor="#ffffff"
     bordercolor="#000000"
     borderopacity="0.25"
     inkscape:showpageshadow="2"
     inkscape:pageopacity="0.0"
     inkscape:pagecheckerboard="false"
     inkscape:deskcolor="#d1d1d1"
     inkscape:document-units="mm"
     showgrid="false"
     inkscape:zoom="2.9446654"
     inkscape:cx="174.55294"
     inkscape:cy="15.961067"
     inkscape:window-width="1920"
     inkscape:window-height="976"
     inkscape:window-x="0"
     inkscape:window-y="0"
     inkscape:window-maximized="1"
     inkscape:current-layer="layer1" />
  <defs
     id="defs12202">
    <rect
       x="65.741486"
       y="89.845543"
       width="100.0133"
       height="74.207649"
       id="rect13106" />
    <rect
       x="65.741486"
       y="89.845543"
       width="100.0133"
       height="74.207649"
       id="rect13106-1" />
  </defs>
  <g
     inkscape:label="Layer 1"
     inkscape:groupmode="layer"
     id="layer1">
    <rect
       style="fill:#ffffff;stroke-width:0.264583"
       id="rect4104"
       width="26.25"
       height="18.562"
       x="0"
       y="0" />
    <g
       id="g2254"
       transform="translate(-0.16366767,0.10170031)">
      <g
         aria-label="ЭТО НАКЛЕЙКА"
         transform="matrix(0.28347534,0,0,0.22427453,-19.567268,-14.454034)"
         id="text13104-0"
         style="font-size:13.3333px;line-height:1.3;font-family:'Old Soviet';-inkscape-font-specification:'Old Soviet';text-align:center;letter-spacing:0px;word-spacing:0px;white-space:pre;shape-inside:url(#rect13106-1);display:inline">
        <path
           d="m 109.72139,93.126154 c -0.26666,-0.719998 -0.81333,-1.306663 -1.50666,-1.626662 -1.37333,-0.639999 -2.73333,-0.719998 -4.07999,0.05333 -0.25333,0.146666 -0.48,0.253333 -0.78666,0.173333 -1.18667,-0.293333 -1.2,-0.279999 -1.18667,0.853331 0,0.426666 0.0133,0.853331 0.0267,1.279997 0.0133,0.293332 0.0667,0.573332 0.42667,0.626665 0.26666,0.04 0.45333,-0.12 0.58666,-0.319999 0.17333,-0.28 0.30667,-0.599999 0.49333,-0.866665 0.76,-1.039997 1.8,-1.359996 3.01333,-0.933331 0.78666,0.293333 1.35999,0.893331 1.81333,1.53333 0.38666,0.546665 0.22666,1.199997 -0.18667,1.719995 -0.4,0.506666 -0.89333,0.613332 -1.50666,0.28 -0.41333,-0.213333 -0.89333,-0.333333 -1.34667,-0.453333 -0.70666,-0.199999 -1.30666,0.06667 -1.82666,0.533332 -0.21333,0.213333 -0.36,0.479999 -0.18666,0.759998 0.17333,0.293333 0.47999,0.306666 0.73333,0.12 0.57333,-0.386666 1.06666,-0.173333 1.58666,0.133333 0.74667,0.439999 1.52,0.746665 2.41333,0.279999 0.45333,-0.226666 0.72,0.04 0.77333,0.506666 0.21333,1.759995 -1.02667,3.453327 -2.78666,3.893327 -0.85333,0.21333 -1.45333,-0.28 -2.09333,-0.65333 -0.53333,-0.33333 -0.22666,-0.84 -0.14667,-1.293335 0.0267,-0.186667 0.0133,-0.386666 -0.0533,-0.559999 -0.16,-0.426666 -0.25333,-1.066664 -0.81333,-1.026664 -0.56,0.02667 -0.74666,0.639998 -0.93333,1.13333 0,0.04 -0.0133,0.09333 0,0.133333 -0.0667,1.506665 1.6,3.519995 3.07999,3.599995 2.10666,0.0933 4.02666,-0.78667 4.73332,-3.066663 0.32,-1.05333 0.57333,-2.106661 0.4,-3.266658 0.16,-1.21333 -0.2,-2.386661 -0.64,-3.546658 z"
           id="path2218" />
        <path
           d="m 119.66804,92.21949 c -0.04,-1.053331 -0.17334,-1.17333 -1.29333,-1.159997 -0.94667,0 -1.90666,0 -2.85333,0 0,-0.01333 0,-0.01333 0,-0.01333 -1,0 -1.98666,-0.02667 -2.98666,0 -0.96,0.02667 -1.15999,0.213332 -1.15999,1.186663 -0.0133,0.759998 0.04,1.519996 0.0667,2.279994 0,0.373333 0,0.746665 0.0133,1.133331 0.0133,0.399999 0.11999,0.786665 0.59999,0.826664 0.48,0.02667 0.65334,-0.333332 0.69334,-0.733331 0.0133,-0.279999 0,-0.573332 -0.0267,-0.853331 -0.04,-0.559999 -0.12,-1.133331 -0.08,-1.693329 0.04,-0.666665 0.61333,-1.079997 1.29333,-1.053331 0.64,0.01333 0.77333,0.453332 0.82666,0.959998 0.0267,0.279999 0.04,0.559998 0.04,0.839998 0.0133,2.093328 0.0133,4.173322 0.0533,6.253311 0.0133,0.64 -0.17334,0.98667 -0.84,1.02667 -0.32,0.0267 -0.57333,0.2 -0.54667,0.53333 0.04,0.38666 0.33334,0.58666 0.69333,0.6 0.94667,0.04 1.89333,0.0533 2.84,0.04 0.36,0 0.66666,-0.16 0.73333,-0.54667 0.0533,-0.41333 -0.21333,-0.65333 -0.56,-0.69333 -0.94666,-0.08 -0.96,-0.69333 -0.96,-1.413326 -0.0133,-1.37333 0.21334,-2.733327 0.13334,-4.106656 -0.04,-0.746665 -0.0533,-1.506663 -0.10667,-2.266661 -0.0267,-0.533332 0.13333,-0.933331 0.66666,-1.119997 0.72,-0.24 1.29333,0.119999 1.42667,0.906664 0.14666,0.853331 0.04,1.693329 -0.0267,2.54666 -0.0267,0.453332 0.14667,0.893331 0.68,0.933331 0.57333,0.04 0.73333,-0.386666 0.69333,-0.853331 -0.13333,-1.186664 0.0133,-2.373327 -0.0133,-3.559991 z"
           id="path2220" />
        <path
           d="m 122.05469,92.09949 c -1.21333,1.226664 -1.36,2.74666 -1.44,4.319989 -0.14666,1.746663 0.50667,3.239992 1.42667,4.666651 0.46666,0.72 1.07999,1.13333 1.93332,1.30667 1.53333,0.32 2.74666,-0.10667 3.85333,-1.21333 1.74666,-1.719998 1.99999,-6.026654 0.86666,-8.186649 -1.50666,-2.866659 -4.35999,-3.226658 -6.63998,-0.893331 z m 4.37332,8.66664 c -1.30666,0.90667 -2.71999,0.72 -3.55999,-0.59999 -1.32,-2.079998 -1.37333,-5.173324 0.16,-7.239985 0.88,-1.21333 2.14666,-1.279997 3.29332,-0.319999 1.36,1.146663 1.90667,2.533327 1.65333,4.053323 0.0667,1.746662 -0.13333,3.133325 -1.54666,4.106651 z"
           id="path2222" />
        <path
           d="m 80.034836,108.88612 c -0.04,0.19999 0.06667,0.39999 0.253332,0.46666 1.159997,0.48 0.986664,1.46666 0.946665,2.42666 -0.04,0.64 -0.413333,0.94667 -0.999998,0.97333 -0.853331,0.04 -1.719996,0.0267 -2.573327,0.0133 -0.293332,0 -0.613332,-0.10667 -0.613332,-0.45334 0,-0.74666 0.02667,-1.50666 0.12,-2.25332 0.05333,-0.53334 0.573332,-0.56 0.973331,-0.69334 0.239999,-0.0667 0.386666,-0.30666 0.319999,-0.55999 -0.04,-0.25334 -0.213333,-0.46667 -0.453332,-0.46667 -0.946664,-0.0267 -1.906662,-0.08 -2.813326,0.25333 -0.373333,0.13334 -0.519999,0.52 -0.09333,0.73333 0.853331,0.44 0.919997,1.24 0.826664,1.96 -0.239999,2.02666 0.146667,4.06666 -0.09333,6.09332 -0.08,0.64 -0.05333,1.11999 -0.826664,1.19999 -0.253333,0.0133 -0.453333,0.17334 -0.413333,0.46667 0.04,0.24 0.24,0.42666 0.493332,0.44 0.893331,0.0667 1.799996,0.0933 2.693327,0.12 0.306666,0.0133 0.599998,-0.0667 0.653332,-0.41333 0.04,-0.14667 0.01333,-0.29334 -0.08,-0.41334 -0.08,-0.12 -0.213333,-0.18666 -0.359999,-0.2 -0.826665,-0.12 -0.959998,-0.62666 -0.839998,-1.33333 0.01333,-0.22666 0.02667,-0.45333 0,-0.67999 -0.04,-0.65334 -0.106667,-1.12 -0.09333,-1.6 0.01333,-0.93333 0.253332,-1.16 1.199997,-1.14666 0.573332,0.0133 1.146663,0.08 1.706662,0.0667 0.586665,-0.0267 0.813331,0.25334 1.026664,0.74667 0.386666,0.93333 0.09333,1.89333 0.266666,2.81332 0.12,0.66667 -0.05333,1.13333 -0.826664,1.2 -0.24,0.0267 -0.479999,0.13333 -0.479999,0.41333 -0.01333,0.30667 0.213333,0.56 0.506665,0.6 0.893331,0.13333 1.799996,0.12 2.679993,-0.04 0.506666,-0.0933 0.639999,-0.78666 0.213333,-0.93333 -1.226663,-0.41333 -0.959997,-1.4 -0.973331,-2.23999 -0.04,-1.89333 0.05333,-3.78666 0.02667,-5.67999 -0.01333,-0.69333 -0.02667,-1.21333 0.853331,-1.29333 0.359999,-0.04 0.599999,-0.29333 0.506665,-0.70666 -0.08,-0.32 -0.359999,-0.44 -0.653331,-0.42667 -0.853331,0.0267 -1.706663,0.08 -2.559994,0.14667 -0.239999,0.0267 -0.466665,0.13333 -0.519998,0.4 z"
           id="path2224" />
        <path
           d="m 94.594788,118.91276 c -0.999997,-0.18667 -1.266663,-0.89333 -1.559996,-1.77333 -0.466665,-1.4 -0.746664,-2.85333 -1.306663,-4.19999 -0.519999,-1.26667 -1.066664,-2.52 -1.399996,-3.85333 -0.09333,-0.34666 -0.186667,-0.65333 -0.586666,-0.71999 -0.439999,-0.08 -0.706665,0.18666 -0.879997,0.54666 -0.133333,0.25333 -0.24,0.52 -0.333333,0.78667 -0.893331,2.49332 -1.786662,4.98665 -2.653327,7.47998 -0.279999,0.77333 -0.546665,1.47999 -1.453329,1.78666 -0.506666,0.18667 -0.493332,0.68 -0.04,0.97333 0.186666,0.12 0.413332,0.2 0.653332,0.21333 0.986664,0.10667 1.973328,-0.25333 2.973325,-0.08 0.306666,0.0533 0.506666,-0.25333 0.479999,-0.57333 0,-0.25333 -0.199999,-0.45333 -0.439999,-0.48 -0.186666,-0.0267 -0.386665,0.0267 -0.573332,-0.0133 -0.786664,-0.13333 -0.946664,-0.41333 -0.706664,-1.18666 0.426665,-1.44 0.813331,-1.70667 2.439993,-1.70667 0.519999,0.0267 1.053331,0 1.559996,0.10667 0.799998,0.17333 1.106664,0.73333 1.239997,1.86666 0.08,0.65333 -0.279999,0.82667 -0.813331,0.90667 -0.239999,0.0133 -0.439999,0.22666 -0.439999,0.46666 -0.01333,0.33333 0.173333,0.54667 0.466666,0.64 0.226666,0.0533 0.493332,0.12 0.706664,0.0667 0.786665,-0.17334 1.559997,-0.30667 2.386661,-0.12 0.319999,0.08 0.693332,-0.0533 0.799998,-0.42667 0.106666,-0.41333 -0.16,-0.64 -0.519999,-0.70666 z m -4.253322,-3.77333 c -0.2,-0.0133 -0.399999,-0.04 -0.586665,-0.0667 -0.12,0 -0.266666,0 -0.399999,-0.0133 -1.279997,-0.0933 -1.29333,-0.14666 -0.973331,-1.45333 0.159999,-0.73333 0.413332,-1.45333 0.759998,-2.11999 0.239999,-0.45333 0.639998,-0.44 0.826664,0.04 0.346666,0.86666 0.826665,1.67999 1.079998,2.59999 0.226666,0.84 0.119999,1.04 -0.706665,1.01333 z"
           id="path2226" />
        <path
           d="m 104.90143,117.04609 c -0.52,-0.14666 -0.62667,0.26667 -0.70667,0.65334 -0.0533,0.30666 -0.17333,0.59999 -0.52,0.57333 -0.45333,-0.04 -0.38666,-0.45333 -0.41333,-0.77333 -0.0133,-0.0933 -0.0133,-0.18667 -0.0133,-0.28 -0.10667,-1.37333 -0.14667,-2.77333 -1.58667,-3.57333 -0.28,-0.14666 -0.36,-0.53333 -0.08,-0.73333 0.72,-0.52 0.66667,-1.30666 0.8,-2.03999 0.2,-1.08 0.21333,-1.09333 1.33333,-1.06667 0.48,0.0133 0.86667,-0.12 0.97333,-0.61333 0.10667,-0.50666 -0.22666,-0.78666 -0.64,-0.97333 -1.05333,-0.49333 -2.06666,-0.04 -2.54666,1.08 -0.22666,0.54666 -0.14666,1.13333 -0.24,1.67999 -0.25333,1.50667 -1.23999,2.22666 -2.733322,2.02666 -0.253333,-0.0267 -0.573332,-0.14666 -0.479999,-0.38666 0.466666,-1.13333 -0.493332,-2.81333 1.319997,-3.41333 0.186666,-0.0667 0.253333,-0.29333 0.2,-0.49333 -0.06667,-0.26666 -0.293333,-0.34666 -0.533332,-0.36 -0.479999,-0.0133 -0.959998,0 -1.426664,0 0,0.0267 0,0.04 0,0.0667 -0.519998,-0.0267 -1.05333,-0.0667 -1.573329,-0.08 -0.293332,0 -0.599998,0.0667 -0.653332,0.4 -0.05333,0.33333 0.186667,0.54666 0.493333,0.6 0.759998,0.12 0.959997,0.61333 0.986664,1.31999 0.02667,0.61334 0.106666,1.2 0.06667,1.82667 -0.106666,1.65333 -0.133333,3.30665 -0.119999,4.94665 0,0.65333 -0.2,0.97333 -0.799998,1.13333 -0.28,0.0667 -0.586666,0.18667 -0.546666,0.54667 0.04,0.42666 0.426666,0.49333 0.746665,0.49333 0.986664,-0.04 1.973328,-0.16 2.959993,0.0667 0.293332,0.0533 0.599998,-0.12 0.679998,-0.41333 0.12,-0.42666 -0.186666,-0.62666 -0.519999,-0.69333 -0.973331,-0.18667 -1.13333,-0.90666 -1.13333,-1.70666 0,-0.66667 0.01333,-1.33333 0.02667,-1.98666 0,-0.37334 0.16,-0.64 0.506666,-0.77333 0.773331,-0.29334 1.946664,0.08 2.373324,0.81333 0.36,0.65333 0.76,1.30666 0.68,2.13332 -0.0533,0.57334 0.2,1.12 0.42667,1.64 0.34666,0.8 1.18666,1.22666 1.95999,1.04 0.72,-0.17334 1.18667,-0.86667 1.18667,-1.73333 -0.0133,-0.38667 -0.0267,-0.82667 -0.45333,-0.94667 z"
           id="path2228" />
        <path
           d="m 114.86139,118.60609 c -0.90666,-0.2 -1.08,-0.89333 -1.04,-1.62666 0.12,-1.70666 -0.0133,-3.39999 -0.0533,-5.10666 -0.0267,-1.10666 -0.08,-2.23999 1.37333,-2.57332 0.18667,-0.0667 0.32,-0.25334 0.29333,-0.45333 0,-0.24 -0.17333,-0.45334 -0.42666,-0.50667 -0.26667,-0.0533 -0.56,-0.0667 -0.84,-0.0267 -0.74667,0.0933 -1.52,-0.0133 -2.26666,0.0667 -1.42667,0.13333 -2.84,-0.0667 -4.25333,0.0267 -0.27999,0.0267 -0.61333,0.0267 -0.66666,0.38666 -0.0667,0.33333 0.18667,0.54667 0.46667,0.6 1.01333,0.24 1.14666,0.98666 1.21333,1.84 0.13333,1.77332 -0.4,3.46665 -0.48,5.21332 -0.0133,0.36 -0.26667,0.70666 -0.41334,1.05333 -0.17333,0.46666 -0.45333,0.71999 -0.97333,0.49333 -0.55999,-0.24 -0.93333,-0.04 -1.09333,0.50666 -0.14666,0.46667 0.24,1.04 0.78667,1.18667 0.50666,0.14666 1.06666,0.0267 1.46666,-0.32 0.62667,-0.50667 1.06666,-1.2 1.25333,-1.98666 0.53333,-2.22666 0.69333,-4.46666 0.70667,-6.73332 0.0133,-1.09333 0.46666,-1.42666 1.51999,-1.26666 0.73333,0.12 0.98667,0.44 1.16,1.38666 0.29333,1.52 -0.17333,3.02666 -0.0133,4.34666 -0.0267,0.51999 -0.04,0.85333 -0.0667,1.18666 -0.0533,1 0.2,2.14666 -1.30666,2.42666 -0.30667,0.0533 -0.25334,0.45333 -0.0133,0.69333 0.22667,0.18667 0.52,0.26667 0.81333,0.2 0.85334,-0.13333 1.68,-0.14667 2.53333,0.0933 0.36,0.12 0.8,0.0667 0.89333,-0.42666 0.08,-0.4 -0.22666,-0.61333 -0.57333,-0.68 z"
           id="path2230" />
        <path
           d="m 116.26138,109.47278 c 1.13333,-0.0667 1.16,0.76 1.24,1.52 0.2,2.21332 0.0267,4.43999 -0.0133,6.65331 0,0.6 -0.14666,1.01333 -0.86666,0.98667 -0.29333,-0.0133 -0.61333,0.10666 -0.62667,0.45333 0,0.44 0.38667,0.49333 0.72,0.50666 1.28,0.0133 2.56,0 3.39999,0 1.58667,0.16 2.70666,-0.12 3.85333,0.08 0.64,0.12 1.07999,-0.27999 0.94666,-0.90666 -0.22667,-1.08 -0.0933,-2.17333 -0.12,-3.25333 -0.0133,-0.29333 -0.0667,-0.61333 -0.42666,-0.63999 -0.41334,-0.0267 -0.57334,0.29333 -0.62667,0.63999 -0.10667,0.56 0.0267,1.12 -0.13333,1.69333 -0.30667,1.05333 -0.57333,1.32 -1.68,1.38667 -0.70666,0.0267 -1.42666,0.0267 -2.13333,-0.0133 -0.85333,-0.0533 -1.13333,-0.32 -1.14666,-1.11999 0,-0.90667 0.08,-1.8 0.12,-2.70666 0.0267,-0.46667 0.28,-0.64 0.74666,-0.64 0.98667,0.0133 1.13334,0.13333 1.34667,1.37333 0.0667,0.37333 0.0267,0.86666 0.53333,0.85333 0.54667,-0.0133 0.64,-0.48 0.64,-0.94666 0.0133,-1.13334 0.0267,-2.26667 0.04,-3.41333 0,-0.29333 -0.0667,-0.6 -0.38667,-0.68 -0.4,-0.10666 -0.6,0.17334 -0.72,0.50667 -0.04,0.14666 -0.08,0.28 -0.10666,0.41333 -0.17334,0.81333 -0.77333,0.88 -1.42667,0.82666 -0.71999,-0.0533 -0.77333,-0.57333 -0.78666,-1.13333 0,-0.33333 -0.0133,-0.65333 -0.0267,-0.98666 -0.0667,-1.02666 0.04,-1.21333 1,-1.30666 1.04,-0.0933 2.08,-0.10667 3.11999,-0.10667 0.52,0 0.73333,0.36 0.76,0.85333 0.0267,0.52 0.0533,1.04 0.12,1.56 0.0533,0.38666 0.33333,0.56 0.72,0.49333 0.34666,-0.0533 0.44,-0.32 0.42666,-0.62667 -0.0267,-0.42666 0.0267,-0.87999 -0.0933,-1.27999 -0.2,-0.61333 0.48,-1.45333 -0.25333,-1.82666 -0.53333,-0.28 -1.29333,-0.17334 -1.94666,-0.21334 -0.24,-0.0133 -0.48,0.0667 -0.70667,0.0533 -1.66666,-0.0533 -3.31999,0.30666 -4.97332,0.0667 -0.18666,-0.0267 -0.37333,0 -0.56,0.08 -0.18666,0.0533 -0.30666,0.22667 -0.30666,0.42667 0,0.22666 0.13333,0.38666 0.33333,0.37333 z"
           id="path2232" />
        <path
           d="m 133.07466,105.93946 c -0.57333,-0.0933 -0.65333,0.41333 -0.87999,0.74666 -0.88,1.26666 -1.8,1.28 -2.64,0.0267 -0.08,-0.12 -0.13333,-0.25334 -0.21333,-0.36 -0.22667,-0.29333 -0.49333,-0.48 -0.85333,-0.26667 -0.38667,0.24 -0.41333,0.6 -0.21333,1 0.17333,0.34667 0.45333,0.58666 0.77333,0.81333 0.10666,0.0667 0.18666,0.14667 0.26666,0.25333 0.30667,0.0933 0.61333,0.24 0.86667,0.44 0.04,-0.0133 0.0933,-0.0267 0.14666,-0.0267 0.0267,0 0.0533,0 0.08,0 0.10667,-0.04 0.22667,-0.0533 0.34667,-0.0267 0.37333,-0.0667 0.73333,-0.16 1.08,-0.29333 0.14666,-0.04 0.29333,-0.0933 0.44,-0.12 0.15999,-0.25334 0.65333,-0.33334 0.86666,-0.58667 0.30667,-0.32 0.54666,-0.66666 0.41333,-1.13333 -0.0667,-0.22666 -0.21333,-0.42666 -0.48,-0.46666 z m 1.84,12.78663 c -1.17333,-0.48 -1.13333,-0.48 -1.05333,-1.69333 0.13333,-1.79999 0.18666,-3.58666 0,-5.37332 -0.13334,-1.25333 -0.22667,-1.25333 1.01333,-1.90666 0.22666,-0.12 0.4,-0.25333 0.37333,-0.52 -0.0267,-0.25333 -0.21333,-0.45333 -0.46666,-0.46666 -0.37334,-0.04 -0.76,-0.0533 -1.13334,-0.0533 -0.27999,0 -0.61333,0.12 -0.89333,0.10667 -0.36,0.0933 -0.71999,0.13333 -1.03999,0.28 -0.13334,0.0533 -0.22667,0.16 -0.25334,0.29333 0.17334,0.21333 0.38667,0.37333 0.64,0.49333 0.50667,0.28 0.50667,0.85333 0.0533,1.46667 -0.42667,0.57333 -0.88,1.11999 -1.36,1.62666 -0.53333,0.56 -0.90667,1.21333 -1.32,1.83999 -0.17333,0.28 -0.36,0.61334 -0.77333,0.42667 -0.30667,-0.14667 -0.28,-0.45333 -0.14667,-0.74667 0,-1.21333 0.0133,-2.42666 0,-3.63999 -0.0133,-0.46666 0.0533,-0.89333 0.58667,-0.95999 0.37333,-0.0533 0.56,-0.21334 0.69333,-0.45334 0.04,-0.17333 0,-0.33333 -0.24,-0.46666 -0.18666,-0.10667 -0.38666,-0.18667 -0.6,-0.25333 -0.08,0.0133 -0.17333,0.0267 -0.25333,0.0133 -0.76,0 -1.52,-0.0133 -2.27999,-0.0133 -0.24,0 -0.48,0.08 -0.52,0.37333 -0.04,0.26666 0.0933,0.49333 0.33333,0.54666 1.05333,0.21334 0.94666,0.96 0.93333,1.76 -0.0667,1.83999 -0.14667,3.67999 -0.0133,5.51998 0.0533,0.84 0.0533,1.44 -0.73333,1.92 -0.52,0.32 -0.46667,0.73333 0.0667,0.89333 0.96,0.28 1.97333,0.18667 2.96,0.16 0.25333,-0.0133 0.45333,-0.2 0.47999,-0.44 0.0667,-0.33333 -0.10666,-0.54666 -0.38666,-0.68 -0.13333,-0.0533 -0.29333,-0.0533 -0.41333,-0.10666 -0.74667,-0.33334 -0.81334,-0.52 -0.34667,-1.13333 0.94666,-1.25333 1.92,-2.48 2.87999,-3.70666 0.14667,-0.18667 0.32,-0.37333 0.6,-0.24 0.25333,0.13333 0.29333,0.4 0.21333,0.61333 -0.29333,0.89333 -0.12,1.78666 -0.08,2.67999 0.0133,0.57334 0.08,1.25333 -0.42666,1.73333 -0.25333,0.22667 -0.85333,0.24 -0.70667,0.73334 0.17334,0.62666 0.78667,0.33333 1.22667,0.39999 0.21333,0.0267 0.42666,0.0267 0.64,0.0133 0.58666,0.0267 1.10666,0.0667 1.62666,0.0667 0.32,0 0.54666,-0.16 0.58666,-0.49333 0.04,-0.33333 -0.17333,-0.49333 -0.46666,-0.61333 z"
           id="path2234" />
        <path
           d="m 145.47462,117.04609 c -0.52,-0.14666 -0.62667,0.26667 -0.70667,0.65334 -0.0533,0.30666 -0.17333,0.59999 -0.52,0.57333 -0.45333,-0.04 -0.38666,-0.45333 -0.41333,-0.77333 -0.0133,-0.0933 -0.0133,-0.18667 -0.0133,-0.28 -0.10667,-1.37333 -0.14667,-2.77333 -1.58666,-3.57333 -0.28,-0.14666 -0.36,-0.53333 -0.08,-0.73333 0.71999,-0.52 0.66666,-1.30666 0.79999,-2.03999 0.2,-1.08 0.21334,-1.09333 1.33333,-1.06667 0.48,0.0133 0.86667,-0.12 0.97334,-0.61333 0.10666,-0.50666 -0.22667,-0.78666 -0.64,-0.97333 -1.05333,-0.49333 -2.06666,-0.04 -2.54666,1.08 -0.22667,0.54666 -0.14667,1.13333 -0.24,1.67999 -0.25334,1.50667 -1.24,2.22666 -2.73333,2.02666 -0.25333,-0.0267 -0.57333,-0.14666 -0.48,-0.38666 0.46667,-1.13333 -0.49333,-2.81333 1.32,-3.41333 0.18666,-0.0667 0.25333,-0.29333 0.2,-0.49333 -0.0667,-0.26666 -0.29333,-0.34666 -0.53333,-0.36 -0.48,-0.0133 -0.96,0 -1.42667,0 0,0.0267 0,0.04 0,0.0667 -0.52,-0.0267 -1.05333,-0.0667 -1.57333,-0.08 -0.29333,0 -0.59999,0.0667 -0.65333,0.4 -0.0533,0.33333 0.18667,0.54666 0.49333,0.6 0.76,0.12 0.96,0.61333 0.98667,1.31999 0.0267,0.61334 0.10666,1.2 0.0667,1.82667 -0.10666,1.65333 -0.13333,3.30665 -0.11999,4.94665 0,0.65333 -0.2,0.97333 -0.8,1.13333 -0.28,0.0667 -0.58667,0.18667 -0.54667,0.54667 0.04,0.42666 0.42667,0.49333 0.74667,0.49333 0.98666,-0.04 1.97332,-0.16 2.95999,0.0667 0.29333,0.0533 0.6,-0.12 0.68,-0.41333 0.12,-0.42666 -0.18667,-0.62666 -0.52,-0.69333 -0.97333,-0.18667 -1.13333,-0.90666 -1.13333,-1.70666 0,-0.66667 0.0133,-1.33333 0.0267,-1.98666 0,-0.37334 0.16,-0.64 0.50667,-0.77333 0.77333,-0.29334 1.94666,0.08 2.37333,0.81333 0.36,0.65333 0.76,1.30666 0.68,2.13332 -0.0533,0.57334 0.2,1.12 0.42666,1.64 0.34667,0.8 1.18667,1.22666 1.96,1.04 0.71999,-0.17334 1.18666,-0.86667 1.18666,-1.73333 -0.0133,-0.38667 -0.0267,-0.82667 -0.45333,-0.94667 z"
           id="path2236" />
        <path
           d="m 156.67458,118.91276 c -1,-0.18667 -1.26666,-0.89333 -1.55999,-1.77333 -0.46667,-1.4 -0.74667,-2.85333 -1.30667,-4.19999 -0.52,-1.26667 -1.06666,-2.52 -1.39999,-3.85333 -0.0933,-0.34666 -0.18667,-0.65333 -0.58667,-0.71999 -0.44,-0.08 -0.70666,0.18666 -0.88,0.54666 -0.13333,0.25333 -0.24,0.52 -0.33333,0.78667 -0.89333,2.49332 -1.78666,4.98665 -2.65333,7.47998 -0.28,0.77333 -0.54666,1.47999 -1.45333,1.78666 -0.50666,0.18667 -0.49333,0.68 -0.04,0.97333 0.18667,0.12 0.41334,0.2 0.65334,0.21333 0.98666,0.10667 1.97332,-0.25333 2.97332,-0.08 0.30667,0.0533 0.50667,-0.25333 0.48,-0.57333 0,-0.25333 -0.2,-0.45333 -0.44,-0.48 -0.18666,-0.0267 -0.38666,0.0267 -0.57333,-0.0133 -0.78667,-0.13333 -0.94666,-0.41333 -0.70667,-1.18666 0.42667,-1.44 0.81334,-1.70667 2.44,-1.70667 0.52,0.0267 1.05333,0 1.55999,0.10667 0.8,0.17333 1.10667,0.73333 1.24,1.86666 0.08,0.65333 -0.28,0.82667 -0.81333,0.90667 -0.24,0.0133 -0.44,0.22666 -0.44,0.46666 -0.0133,0.33333 0.17333,0.54667 0.46667,0.64 0.22666,0.0533 0.49333,0.12 0.70666,0.0667 0.78667,-0.17334 1.56,-0.30667 2.38666,-0.12 0.32,0.08 0.69333,-0.0533 0.8,-0.42667 0.10667,-0.41333 -0.16,-0.64 -0.52,-0.70666 z m -4.25332,-3.77333 c -0.2,-0.0133 -0.4,-0.04 -0.58667,-0.0667 -0.12,0 -0.26666,0 -0.4,-0.0133 -1.27999,-0.0933 -1.29333,-0.14666 -0.97333,-1.45333 0.16,-0.73333 0.41334,-1.45333 0.76,-2.11999 0.24,-0.45333 0.64,-0.44 0.82667,0.04 0.34666,0.86666 0.82666,1.67999 1.07999,2.59999 0.22667,0.84 0.12,1.04 -0.70666,1.01333 z"
           id="path2238" />
      </g>
    </g>
  </g>
</svg>
